# xmcd
#
# Track frame offsets: 
#        150
#        43474
#        49341
#        93113
#        187644
#        231972
#        251772
#        265930
#
# Disc length: 4105 seconds
#
# Revision: 1
# Processed by: cddbd v1.5.2PL0 Copyright (c) Steve Scherf et al.
# Submitted via: ExactAudioCopy v1.0b3
#
DISCID=69100708
DTITLE=Herbie Hancock - A Jazz Hour with Herbie Hancock and Chick Core
DTITLE=a Piano Fiesta
DYEAR=2005
DGENRE=Jazz
TTITLE0=Hornets
TTITLE1=Interlude
TTITLE2=Hornets
TTITLE3=Gibraltar
TTITLE4=Sea breeze
TTITLE5=Moment's notice
TTITLE6=Come rain or come shine
TTITLE7=Fiesta piano solo
EXTD=
EXTT0=
EXTT1=
EXTT2=
EXTT3=
EXTT4=
EXTT5=
EXTT6=
EXTT7=
PLAYORDER=
